<svg xmlns="http://www.w3.org/2000/svg" xmlns:xlink="http://www.w3.org/1999/xlink" width="256" height="256" version="1.1" style=""><rect id="backgroundrect" width="100%" height="100%" x="0" y="0" fill="none" stroke="none" style="" class=""/>
    <title>Unreal</title>
    <defs>
        <linearGradient x1="0%" y1="99.8785895%" x2="0%" y2="0%" id="linearGradient-1">
            <stop stop-color="#555555" offset="0%"/>
            <stop stop-color="#404040" offset="100%"/>
        </linearGradient>
        <linearGradient x1="0%" y1="99.7914907%" x2="0%" y2="0%" id="linearGradient-2">
            <stop stop-color="#555555" offset="0%"/>
            <stop stop-color="#404040" offset="100%"/>
        </linearGradient>
        <linearGradient x1="35.955%" y1="70.6400663%" x2="50%" y2="0%" id="linearGradient-3">
            <stop stop-color="#404040" offset="0%"/>
            <stop stop-color="#555555" stop-opacity="0" offset="100%"/>
        </linearGradient>
    </defs>
    
<g class="currentLayer" style=""><title>Layer 1</title><g id="Unreal" stroke="none" stroke-width="1" fill="none" fill-rule="evenodd" class="">
        <g id="Group-6-Copy">
            <path d="M131.84139178530273,19.38704868265137 L223.49999618530273,58.76364029265137 L223.49999618530273,180.76703609265138 C223.49999618530273,190.75984409265138 217.54936218530273,199.79275209265137 208.36794718530274,203.73709309265138 L131.84139178530273,236.61294709265135 C130.45549458530274,237.20833009265138 128.97775048530275,237.50605509265137 127.49999588530274,237.50612209265137 L127.49999588530274,18.493874080211366 C128.97775048530275,18.493941545621368 130.45549458530274,18.791666412651367 131.84139178530273,19.38704868265137 z" id="Combined-Shape-Copy-53" fill="url(#linearGradient-1)"/>
            <path d="M84.84139179530274,128.88704868265137 L176.49999618530273,168.26364029265136 L176.49999618530273,290.2670360926514 C176.49999618530273,300.2598440926514 170.54936218530275,309.29275209265137 161.36794678530273,313.2370930926514 L84.84139179530274,346.1129470926513 C83.45549459530272,346.7083300926514 81.97775046530273,347.00605509265137 80.49999593072462,347.00612209265137 L80.49999593072462,127.99387408021137 C81.97775046530273,127.99394154562137 83.45549459530272,128.29166641265135 84.84139179530274,128.88704868265137 z" id="Combined-Shape-Copy-54" fill="url(#linearGradient-2)" transform="rotate(180 80.49999999999999,128) translate(-48,-109.5) "/>
            <path d="M181.49999618530273,40.49999809265137 L181.49999618530273,180.17459109265135 L133.00747618530272,235.36951609265137 C130.82035678530275,237.85892809265135 127.02927898530274,238.10398509265136 124.53986658530273,235.91686609265136 C124.34582538530273,235.74638809265136 124.16299498530273,235.56355709265137 123.99251638530274,235.36951609265137 L75.49999618530273,180.17459109265135 L75.49999618530273,180.17459109265135 L75.49999618530273,40.49999809265137 L181.49999618530273,40.49999809265137 z" id="Polygon-Copy-11" fill="url(#linearGradient-3)"/>
            <g id="Group-2" fill="#FFFFFF">
                <g id="Group-12">
                    <g id="Group-13">
                        <path d="M258.49999618530273,249.20428939265136 C229.45910018530273,234.63690939265138 204.56342518530272,226.48886909265138 183.81297118530273,224.76016839265137 C163.06251718530274,223.03146779265137 144.62485878530273,224.25119109265137 128.49999618530273,228.41933819265137 L137.51756398530273,233.59427679265139 C144.88911658530273,230.96842739265136 156.74335008530272,230.57322409265137 173.08026458530273,232.4086667926514 C189.41717918530273,234.24410939265135 207.27205278530272,242.44121989265136 226.64488518530274,256.99999809265137 L258.49999618530273,249.20428939265136 z" id="Path-9" transform="rotate(-6 126.49999237060537,165) translate(-67,-75.5) "/>
                        <path d="M114.49999618530273,89.49999809265137 L114.49999618530273,157.49999809265137 L86.49999618530273,157.49999809265137 L86.49999618530273,99.21399809265137 L114.49999618530273,89.49999809265137 z" id="Combined-Shape-Copy-2"/>
                    </g>
                    <path d="M156.49999618530273,132.49999809265137 L156.49999618530273,157.49999809265137 L126.49999618530273,157.49999809265137 L126.49999618530273,136.05499809265137 L156.49999618530273,132.49999809265137 z" id="Combined-Shape-Copy-3"/>
                </g>
                <path d="M277.5001335144043,88.49990844726562 C280.53769951440427,88.49990844726562 283.0001335144043,90.96234232726562 283.0001335144043,93.99990844726562 C283.0001335144043,95.86031479726563 282.0764385144043,97.50498055726563 280.6626455144043,98.50030746726563 L292.0001335144043,98.49990844726562 C292.5524185144043,98.49990844726562 293.0001335144043,98.94762369726563 293.0001335144043,99.49990844726562 L293.0004015144043,111.27630554726562 C291.9720285144043,110.37887464726563 290.6139495144043,109.83317114726563 289.1251335144043,109.83317114726563 C285.9149785144043,109.83317114726563 283.3126335144043,112.37020844726563 283.3126335144043,115.49980254726563 C283.3126335144043,118.62939654726563 285.9149785144043,121.16643384726562 289.1251335144043,121.16643384726562 C290.6139495144043,121.16643384726562 291.9720285144043,120.62073034726562 293.0004015144043,119.72329944726562 L293.0001335144043,131.49969654726561 C293.0001335144043,132.0519813472656 292.5524185144043,132.49969654726561 292.0001335144043,132.49969654726561 L281.8325575144043,132.49973134726562 C282.7529665144043,131.49719334726564 283.3126335144043,130.17328624726562 283.3126335144043,128.7219423472656 C283.3126335144043,125.59234824726562 280.7102885144043,123.05531094726562 277.5001335144043,123.05531094726562 C274.2899785144043,123.05531094726562 271.6876335144043,125.59234824726562 271.6876335144043,128.7219423472656 C271.6876335144043,130.17328624726562 272.2473005144043,131.49719334726564 273.1677095144043,132.49973134726562 L263.0001335144043,132.49969654726561 C262.4478488144043,132.49969654726561 262.0001335144043,132.0519813472656 262.0001335144043,131.49969654726561 L261.9998370144043,117.16340854726562 C261.0044396144043,118.57664334726563 259.3601066144043,119.49990844726562 257.5001335144043,119.49990844726562 C254.4625674144043,119.49990844726562 252.0001335144043,117.03747454726562 252.0001335144043,113.99990844726562 C252.0001335144043,110.96234234726563 254.4625674144043,108.49990844726562 257.5001335144043,108.49990844726562 C259.3601066144043,108.49990844726562 261.0044396144043,109.42317354726562 261.9998370144043,110.83640834726563 L262.0001335144043,99.49990844726562 C262.0001335144043,98.94762369726563 262.4478488144043,98.49990844726562 263.0001335144043,98.49990844726562 L274.3376215144043,98.50030746726563 C272.9238285144043,97.50498055726563 272.0001335144043,95.86031479726563 272.0001335144043,93.99990844726562 C272.0001335144043,90.96234232726562 274.4625675144043,88.49990844726562 277.5001335144043,88.49990844726562 z" id="Combined-Shape" transform="rotate(90 166.0001373291016,89.49990844726564) translate(-106.50013732910156,-20.999910354614258) "/>
            </g>
        </g>
    </g></g></svg>